<?xml version="1.0" standalone="no"?><!DOCTYPE svg PUBLIC "-//W3C//DTD SVG 1.1//EN" "http://www.w3.org/Graphics/SVG/1.1/DTD/svg11.dtd"><svg t="1675865124368" class="icon" viewBox="0 0 1024 1024" version="1.1" xmlns="http://www.w3.org/2000/svg" p-id="3578" xmlns:xlink="http://www.w3.org/1999/xlink" width="200" height="200"><path d="M749.942 901.944H278.8c-72.2 0-130.953-55.225-130.953-123.078V245.494c0-67.854 58.752-123.078 130.953-123.078h383.551c6.596 0 12.937 2.505 17.794 6.954l192.363 178.046c5.318 4.96 8.387 11.914 8.387 19.226v452.223c0 67.855-58.753 123.079-130.953 123.079zM278.8 174.777c-43.31 0-78.592 31.703-78.592 70.717v533.372c0 39.015 35.282 70.717 78.592 70.717h471.142c43.311 0 78.592-31.702 78.592-70.717v-440.77l-176.461-163.32H278.8z" fill="#B4B4B5" p-id="3579"></path><path d="M832.573 332.319H671.452c-14.471 0-26.181-11.709-26.181-26.18V156.982c0-14.471 11.71-26.18 26.181-26.18s26.181 11.709 26.181 26.18v122.976h134.94c14.471 0 26.181 11.71 26.181 26.181s-11.71 26.18-26.181 26.18z" fill="#B4B4B5" p-id="3580"></path><path d="M320.473 760.202c-10.227 0-20.197-3.067-29.708-9.051-22.448-14.163-25.106-33.083-24.646-43.104 0.818-19.687 12.221-51.083 99.199-98.074 15.34-59.979 25.566-137.446 26.845-203.613-47.094-48.781-66.882-87.387-60.388-117.862 2.25-10.584 10.073-29.913 36.969-40.14 16.567-6.392 34.055-2.557 46.583 10.073 7.107 7.107 28.174 28.277 29.248 126.299 47.759 45.815 117.402 97.563 178.763 132.793 23.316-4.244 43.821-6.392 61.104-6.392 68.979 0 77.672 36.663 78.234 52.463 0.512 16.056-5.932 26.231-11.402 31.958-5.829 5.983-16.517 13.091-34.669 13.091-23.368 0-57.576-12.067-101.908-35.947-64.173 14.011-142.407 41.93-204.994 73.172-22.859 76.904-52.107 114.334-89.23 114.334z m108.454-183.415l-0.767 2.762c38.708-16.823 80.381-32.01 120.164-43.771l-4.296-2.353 4.04-0.817c-36.049-23.777-72.047-50.725-103.698-77.672v3.579l-2.148-2.096c-2.965 40.907-8.539 82.989-16.158 121.85l2.863-1.482z" fill="#B4B4B5" p-id="3581"></path></svg>